# xmcd CD database file generated by OrangeCD 5.1
#
# Track frame offsets:
#	150
#	21807
#	50940
#	71947
#	93975
#	121025
#	140127
#	164702
#	199242
#	217057
#	250425
#
# Disc length: 3689 seconds
#
# Revision: 0
# Processed by: cddbd v1.5PL3 Copyright (c) Steve Scherf et al.
# Submitted via: OrangeCD 5.1
#
DISCID=b50e670b
DTITLE=Big George Jackson and Serious Bidness - Nothing Like The Rest
DYEAR=1998
DGENRE=Blues
TTITLE0=Nothing Like The Rest
TTITLE1=T.V.Mama
TTITLE2=Special Love
TTITLE3=Amtrak
TTITLE4=Girl Of My Dreams
TTITLE5=Tramp Without A Home
TTITLE6=Kin Chuka Bobo
TTITLE7=Too Many Babies
TTITLE8=You Slicked Me
TTITLE9=I Can't Stay
TTITLE10=Like Wolf
EXTD=
EXTT0=
EXTT1=
EXTT2=
EXTT3=
EXTT4=
EXTT5=
EXTT6=
EXTT7=
EXTT8=
EXTT9=
EXTT10=
PLAYORDER=
